<svg class="mr-2 h-5 w-5 rounded-full" width="80" height="80" viewBox="0 0 80 80" xmlns="http://www.w3.org/2000/svg"><rect width="80" height="80" fill="hsl(304,92.8%,19.7%)"></rect><g fill="hsl(253,89.6%,42.9%)"><rect width="10" height="10" x="0" y="0"></rect><rect width="10" height="10" x="10" y="0"></rect><rect width="10" height="10" x="20" y="0"></rect><rect width="10" height="10" x="50" y="0"></rect><rect width="10" height="10" x="60" y="0"></rect><rect width="10" height="10" x="70" y="0"></rect><rect width="10" height="10" x="0" y="10"></rect><rect width="10" height="10" x="10" y="10"></rect><rect width="10" height="10" x="60" y="10"></rect><rect width="10" height="10" x="70" y="10"></rect><rect width="10" height="10" x="0" y="30"></rect><rect width="10" height="10" x="10" y="30"></rect><rect width="10" height="10" x="60" y="30"></rect><rect width="10" height="10" x="70" y="30"></rect><rect width="10" height="10" x="0" y="50"></rect><rect width="10" height="10" x="10" y="50"></rect><rect width="10" height="10" x="60" y="50"></rect><rect width="10" height="10" x="70" y="50"></rect><rect width="10" height="10" x="0" y="60"></rect><rect width="10" height="10" x="10" y="60"></rect><rect width="10" height="10" x="20" y="60"></rect><rect width="10" height="10" x="50" y="60"></rect><rect width="10" height="10" x="60" y="60"></rect><rect width="10" height="10" x="70" y="60"></rect><rect width="10" height="10" x="20" y="70"></rect><rect width="10" height="10" x="50" y="70"></rect></g><g fill="hsl(331,51.1%,35.8%)"><rect width="10" height="10" x="30" y="10"></rect><rect width="10" height="10" x="40" y="10"></rect><rect width="10" height="10" x="30" y="70"></rect><rect width="10" height="10" x="40" y="70"></rect></g></svg>