<svg width="24" height="24" viewBox="0 0 24 24" fill="none" xmlns="http://www.w3.org/2000/svg">
<path d="M0 12C0 5.37258 5.37258 0 12 0C18.6274 0 24 5.37258 24 12C24 18.6274 18.6274 24 12 24C5.37258 24 0 18.6274 0 12Z" fill="black"/>
<path d="M17.6271 5.9998C17.6252 6.12203 17.6223 6.24426 17.6145 6.36649C17.5448 7.48898 17.1265 8.58615 16.4306 9.46953C16.1638 9.81821 15.8375 10.1138 15.5307 10.426C13.6807 12.277 11.8296 14.1265 9.9796 15.978C9.44587 16.5049 9.14004 17.2476 9.13907 17.9971C8.21283 17.9975 7.28659 17.998 6.36084 17.9966C6.36279 17.8904 6.36522 17.7847 6.36961 17.6791C6.43925 16.3428 7.0095 15.0401 7.9445 14.0832C9.96401 12.0627 11.985 10.0432 14.0045 8.02223C14.5402 7.49483 14.847 6.75072 14.8484 5.99979C15.7747 5.99931 16.7009 5.99833 17.6271 5.9998Z" fill="white"/>
<path d="M17.4762 16.6951C17.577 17.1212 17.6257 17.559 17.6277 17.9968C16.7014 17.9988 15.7747 17.9944 14.8485 17.9988C14.8451 17.4329 14.677 16.8675 14.3566 16.4C13.985 15.8458 13.4124 15.4363 12.7734 15.2493C13.4737 14.5514 14.1706 13.8507 14.8714 13.1533C16.1696 13.9189 17.1344 15.2264 17.4762 16.6951Z" fill="white"/>
<path d="M11.2151 8.74706C10.5153 9.44539 9.81792 10.1457 9.11715 10.8435C7.97129 10.1651 7.08011 9.06895 6.65644 7.80572C6.4597 7.22524 6.3623 6.61262 6.36035 6C7.28708 5.99951 8.21331 6 9.14004 5.99951C9.1415 6.64525 9.36551 7.28758 9.77311 7.78917C10.1403 8.24693 10.6521 8.58295 11.2151 8.74706Z" fill="white"/>
<path d="M10.6036 5.99902C10.6013 6.20174 10.6432 6.40472 10.7348 6.59001C11.0124 7.21529 11.7891 7.54985 12.4344 7.31805C12.9968 7.14414 13.385 6.57769 13.3862 5.99902H10.6036Z" fill="white"/>
<path d="M13.3867 17.9973C13.3876 17.8692 13.3697 17.7405 13.3308 17.6155C13.2816 17.4421 13.1983 17.279 13.0868 17.1378C12.6817 16.5997 11.8684 16.4453 11.2933 16.7959C10.864 17.0343 10.6088 17.5152 10.604 17.9973H13.3867Z" fill="white"/>
</svg>
